<?xml version="1.0" encoding="UTF-8"?>
<svg id="Calque_1" data-name="Calque 1" xmlns="http://www.w3.org/2000/svg" viewBox="0 0 16.47 16.47">
  <path d="M7.92,0c4.56-.18,8.38,3.41,8.54,7.91s-3.38,8.37-7.92,8.54S.2,13.1,0,8.57,3.34.19,7.92,0ZM7.74,1.52c-3.75.27-6.51,3.54-6.23,7.23s3.5,6.47,7.2,6.2,6.5-3.5,6.23-7.21S11.48,1.24,7.74,1.52Z"/>
  <path d="M9.96,11.01l-2.27-2.26c-.14-.13-.2-.32-.2-.52V3.71c0-.43.39-.72.76-.71.43.01.73.35.73.79v4.14s2.03,2.05,2.03,2.05c.27.27.2.73-.04.98-.25.26-.72.35-1.02.06Z"/>
</svg>