<?xml version="1.0" encoding="UTF-8"?>
<svg id="Calque_1" data-name="Calque 1" xmlns="http://www.w3.org/2000/svg" viewBox="0 0 361.41 361.41">
  <path d="M361.16,350.42l.25,10.99H0l.26-11.18c2.69-22.11,21.28-39.47,44.32-39.47h272.26c23,0,41.72,17.32,44.33,39.66Z"/>
  <path d="M139.72,208.03v93.06s-90.77,0-90.77,0V70.86c.33-3.31,1.93-5.58,5.26-6.43L304.83.82c4.03-1.02,7.3,2.62,7.46,6.36v294.02s-90.71.05-90.71.05l.02-93.22h-81.88ZM114.26,122.84l.04-30.97h-30.99s.07,30.98.07,30.98h30.88ZM168.82,122.8v-30.93s-30.94,0-30.94,0l-.03,30.98,30.97-.04ZM223.45,122.78v-30.9s-30.95-.02-30.95-.02l-.03,30.92h30.98ZM278.01,122.73l-.04-30.87-30.95.02v30.93s31-.07,31-.07ZM114.27,177.38l.02-30.88h-30.96s0,30.9,0,30.9l30.94-.02ZM168.82,177.31l-.02-30.82-30.95.02v30.92s30.97-.12,30.97-.12ZM223.46,177.35l-.02-30.86-30.97.02.03,30.91,30.97-.07ZM278.01,177.31l-.05-30.89-30.94.02v30.89s31-.02,31-.02Z"/>
</svg>