<?xml version="1.0" encoding="UTF-8"?>
<svg xmlns="http://www.w3.org/2000/svg" viewBox="0 0 602 603">
  <path fill="#fff" d="M602,0v603H0v-.5M547.99,177.62c4.52,0,6.85,1.02,10.84,1.85l.2-45.34c.08-18.31-13.05-31.14-31.21-31.13l-269.4.08c-.12-13.65.44-26.75-.39-40.1s-12.9-22.08-25.45-22.59l-116.14.12c-13.41.01-25.12,11.22-25.2,24.43l-.23,38.08-25.16.12c-15.51.08-28.7,13.14-28.72,28.79l-.06,47.53c4.96-1.02,7.85-1.83,12.24-1.83h498.67ZM547.84,557.55c16.4,0,30.87-13.49,30.88-29.68l.13-313.76c0-17.37-13.43-31.9-31.13-31.9H48.24c-16.09,0-30.96,13.5-30.96,29.92l.08,316.65c0,16.81,16.35,28.81,32,28.81l498.47-.04Z"/>
  <path fill="#fff" d="M547.84,557.55l-498.47.04c-15.65,0-32-12-32-28.81l-.08-316.65c0-16.42,14.87-29.92,30.96-29.92h499.48c17.7,0,31.14,14.53,31.13,31.9l-.13,313.76c0,16.18-14.48,29.67-30.88,29.68ZM515.96,281l.02-21.94H80.06s0,21.94,0,21.94h435.91ZM516.12,347.66l-.15-21.9H80.07s-.15,21.9-.15,21.9h436.2ZM515.95,414.11v-21.92s-435.88,0-435.88,0v21.92s435.88,0,435.88,0ZM515.92,480.8l.05-21.9H80.06s.02,21.92.02,21.92l435.84-.02Z"/>
  <path fill="#fff" d="M547.99,177.62H49.32c-4.4,0-7.28.82-12.24,1.83l.06-47.53c.02-15.64,13.2-28.71,28.72-28.79l25.16-.12.23-38.08c.08-13.21,11.79-24.42,25.2-24.43l116.14-.12c12.55.51,24.63,9.45,25.45,22.59s.27,26.45.39,40.1l269.4-.08c18.16,0,31.3,12.82,31.21,31.13l-.2,45.34c-4-.83-6.32-1.85-10.84-1.85ZM533.08,143.16l.19-18.8H62.78s.18,18.8.18,18.8h470.12ZM533.3,168.85l-.28-18.77H63s-.24,18.77-.24,18.77h470.54Z"/>
</svg>