<?xml version="1.0" encoding="UTF-8"?>
<svg id="Objects" xmlns="http://www.w3.org/2000/svg" viewBox="0 0 2139.07 2139.07">
  <defs>
    <style>
      .cls-1 {
        fill: #d82b2b;
      }

      .cls-2 {
        fill: #fff;
      }
    </style>
  </defs>
  <path class="cls-1" d="M2139.07,1069.54c0,285.69-111.28,554.28-313.29,756.29-202.01,202.01-470.6,313.25-756.25,313.25s-554.28-111.25-756.28-313.25C111.25,1623.82,0,1355.23,0,1069.54S111.25,515.26,313.25,313.25C515.26,111.25,783.85,0,1069.54,0s554.24,111.25,756.25,313.25c202.01,202.01,313.29,470.6,313.29,756.29Z"/>
  <g>
    <path class="cls-2" d="M1069.54,622.94c-246.67,0-446.6,199.96-446.6,446.6s199.92,446.6,446.6,446.6,446.6-199.96,446.6-446.6-199.96-446.6-446.6-446.6ZM1307.98,1133.65c-5.09,18.92-22.19,31.39-40.89,31.39-3.63,0-7.35-.49-11.05-1.49l-197.53-53.1c-18.5-4.96-31.36-21.74-31.36-40.92v-303.63c0-23.39,18.95-42.38,42.38-42.38s42.38,18.98,42.38,42.38v271.13l166.17,44.68c22.58,6.09,35.99,29.32,29.9,51.93Z"/>
    <path class="cls-2" d="M1118.12,472.16v-48.12h49.01c26.84,0,48.6-21.76,48.6-48.6s-21.76-48.6-48.6-48.6h-195.21c-26.84,0-48.6,21.76-48.6,48.6s21.76,48.6,48.6,48.6h49.01v48.12c-307.84,24.82-550.76,283.25-550.76,597.37,0,330.49,268.87,599.35,599.35,599.35s599.35-268.87,599.35-599.35-242.91-572.55-550.76-597.37ZM1069.53,1571.7c-276.89,0-502.16-225.27-502.16-502.16s225.27-502.16,502.16-502.16,502.16,225.27,502.16,502.16-225.27,502.16-502.16,502.16Z"/>
  </g>
</svg>