<?xml version="1.0" encoding="UTF-8"?>
<svg id="Calque_6_-_copie" data-name="Calque 6 - copie" xmlns="http://www.w3.org/2000/svg" viewBox="0 0 304.52 290.52">
  <path d="M200.67,0c6.38,1.14,11.54,6.48,11.55,13.19v5.06c.02,7.28-5.97,13.07-13.22,13.26h-7.87s0,15.51,0,15.51c61.6,4.22,110.65,54.45,113.23,116.19l.16,2.67v5.69s-.15,2.43-.15,2.43c-1.29,32.03-15.31,62.16-38.71,83.96-20.99,19.56-48.09,31.11-76.82,32.56h-13.01c-28.34-1.53-55.09-12.87-75.94-32.06-22.37-20.59-36.35-48.82-38.92-79.17l-.29-3.87-.18-.7.04-11.98.34-3.75c2.5-32.15,17.7-61.9,42.18-82.89l-11.6-17.53c-4.1-6.2-3.03-14.27,3.12-18.39s14.05-2.2,18.07,3.95l11.41,17.44c15.54-8.47,32.32-13.36,50.07-14.58l.02-15.48h-7.32c-7.43-.11-13.43-6.06-13.42-13.49v-4.57c.01-6.92,5.13-12.25,11.81-13.42l35.45-.02ZM188.97,95.9v-17.66c0-3.24-2.61-5.65-5.7-5.65-2.85,0-5.61,2.27-5.62,5.42l-.04,17.76c0,3.3,2.47,5.85,5.67,5.87,3.01.01,5.69-2.39,5.69-5.73ZM149.75,103.8l-8.89-15.41c-.8-1.39-2.54-1.75-3.85-.99-1.16.67-1.88,2.35-1.07,3.74l9.04,15.66c.78,1.36,2.69,1.46,3.8.77,1.18-.73,1.79-2.36.98-3.77ZM221.64,107.2l8.79-15.25c.8-1.39.11-3.12-1.16-3.79-1.13-.6-2.9-.44-3.66.87l-8.96,15.49c-.83,1.44-.29,3.17,1.01,3.89,1.43.8,3.07.36,3.97-1.21ZM122.03,128.65l-15.27-8.81c-1.43-.83-3.15-.21-3.86,1.14-.62,1.18-.39,2.92.96,3.7l15.65,9.03c1.42.82,3.15-.08,3.72-1.28.66-1.38.26-2.94-1.2-3.78ZM246.82,134.81l15.1-8.74c1.42-.82,1.62-2.69.82-3.92-.75-1.16-2.37-1.69-3.73-.91l-15.64,9.05c-1.39.81-1.36,2.86-.62,3.88.99,1.37,2.55,1.52,4.07.64ZM112.24,173.3c3.22-.01,5.16-3.36,4.9-6.08s-2.57-5.13-5.57-5.13h-17.88c-3.16,0-5.51,2.62-5.56,5.59s2.17,5.7,5.26,5.69l18.86-.06ZM273.29,173.34c3.23,0,5.32-3.1,5.16-5.9s-2.51-5.35-5.6-5.35l-17.66-.02c-3.17,0-5.59,2.38-5.76,5.39s2.07,5.91,5.24,5.9l18.63-.02ZM105.95,214.27l15.42-8.9c1.45-.84,1.71-2.68.9-3.95s-2.43-1.68-3.81-.88l-15.2,8.77c-1.44.83-1.91,2.5-1.15,3.88.68,1.24,2.36,1.95,3.84,1.09ZM260.83,210.64l-15.42-8.87c-1.38-.8-3.15.16-3.7,1.36-.64,1.39-.16,2.93,1.24,3.73l15.2,8.77c1.43.82,3.17.28,3.88-1.02.77-1.42.34-3.08-1.21-3.96ZM139.46,246.32l8.98-15.57c.78-1.35,0-3.05-1.17-3.69s-2.97-.42-3.74.93l-8.95,15.5c-.81,1.41-.16,3.13,1.08,3.82s2.97.45,3.8-1ZM228.96,244.2l-8.81-15.26c-.82-1.42-2.5-1.82-3.88-1.06-1.1.61-1.91,2.3-1.13,3.65l9.03,15.66c.81,1.4,2.71,1.6,3.87.85,1.23-.8,1.76-2.39.92-3.85ZM188.97,257.18l-.03-17.9c0-3.13-2.78-5.41-5.66-5.4s-5.61,2.28-5.62,5.41l-.04,17.76c0,3.29,2.47,5.88,5.67,5.88,3.03,0,5.69-2.39,5.69-5.75Z"/>
</svg>