<?xml version="1.0" encoding="UTF-8"?>
<svg id="Calque_6" data-name="Calque 6" xmlns="http://www.w3.org/2000/svg" viewBox="0 0 304.52 290.52">
  <path d="M200.67,0c6.38,1.14,11.54,6.48,11.55,13.19v5.06c.02,7.28-5.97,13.07-13.22,13.26h-7.87s0,15.51,0,15.51c61.6,4.22,110.65,54.45,113.23,116.19l.16,2.67v5.69s-.15,2.43-.15,2.43c-1.29,32.03-15.31,62.16-38.71,83.96-20.99,19.56-48.09,31.11-76.82,32.56h-13.01c-28.34-1.53-55.09-12.87-75.94-32.06-22.37-20.59-36.35-48.82-38.92-79.17l-.29-3.87-.18-.7.04-11.98.34-3.75c2.5-32.15,17.7-61.9,42.18-82.89l-11.6-17.53c-4.1-6.2-3.03-14.27,3.12-18.39s14.05-2.2,18.07,3.95l11.41,17.44c15.54-8.47,32.32-13.36,50.07-14.58l.02-15.48h-7.32c-7.43-.11-13.43-6.06-13.42-13.49v-4.57c.01-6.92,5.13-12.25,11.81-13.42l35.45-.02ZM250.7,248.52c48.52-41.6,49.09-116.15,1.38-158.45-18.22-16.16-42.37-26.29-67.49-26.32h-3.86c-24.05.19-47.23,9.18-65.2,24.08-47.29,39.2-50.99,110.33-8.11,154.25,38.54,39.48,101.39,42.34,143.28,6.43Z"/>
  <path d="M112.15,173.32l-18.94.02c-3.12,0-5.26-3.12-5.09-5.91.18-3.02,2.59-5.37,5.76-5.37h17.51c3.1,0,5.48,2.2,5.76,5.14s-1.72,6.11-5,6.11Z"/>
  <path d="M273.44,173.32l-18.94.02c-3.12,0-5.25-3.13-5.08-5.9.18-3.02,2.58-5.37,5.74-5.37h17.51c3.11,0,5.49,2.18,5.78,5.14.28,2.79-1.74,6.11-5.01,6.11Z"/>
  <path d="M188.94,96.14c0,3.17-2.62,5.38-5.47,5.49s-5.79-2.07-5.79-5.15v-18.73c0-3.05,2.87-5.18,5.59-5.18,2.95,0,5.66,2.26,5.66,5.43v18.14Z"/>
  <path d="M188.94,257.42c0,3.18-2.61,5.39-5.48,5.5s-5.78-2.08-5.78-5.16v-18.73c0-3.04,2.87-5.17,5.6-5.17,2.92,0,5.65,2.28,5.65,5.41v18.15Z"/>
  <path d="M139.47,246.33c-.84,1.46-2.59,1.66-3.83.99s-1.89-2.43-1.07-3.85l8.94-15.49c.79-1.37,2.57-1.59,3.76-.94,1.31.72,1.92,2.44,1.09,3.88l-8.9,15.41Z"/>
  <path d="M246.37,135.07c-1.39.8-3,.11-3.72-1-.67-1.04-.62-3.01.71-3.78l15.93-9.19c1.31-.76,3.04.14,3.6,1.28s.4,2.93-.97,3.72l-15.56,8.98Z"/>
  <path d="M228.8,243.88c.88,1.52.71,3.06-.52,4.01s-3.27.79-4.11-.68l-9.03-15.65c-.78-1.36-.02-3.07,1.11-3.68,1.38-.75,3.07-.39,3.9,1.04l8.65,14.96Z"/>
  <path d="M121.89,128.55c1.47.85,1.97,2.21,1.46,3.64-.44,1.26-2.29,2.41-3.72,1.59l-15.51-8.91c-1.47-.85-2-2.51-1.24-3.93s2.56-1.88,4.04-1.03l14.96,8.63Z"/>
  <path d="M149.84,103.94c.82,1.43-.04,3.11-1.19,3.72s-2.93.44-3.68-.86l-9.1-15.78c-.82-1.42.09-3.17,1.39-3.76s2.89-.14,3.7,1.26l8.87,15.41Z"/>
  <path d="M221.55,107.37c-.83,1.44-2.44,1.74-3.77,1.13-1.15-.54-2.09-2.3-1.29-3.69l9.01-15.64c.76-1.32,2.37-1.64,3.66-1.07,1.21.53,2.15,2.33,1.34,3.73l-8.96,15.56Z"/>
  <path d="M106.13,214.19c-1.49.86-3.13.42-3.95-.86s-.53-3.12.91-3.95l15.64-9.01c1.33-.77,3.03.07,3.63,1.17.64,1.16.49,2.98-.84,3.75l-15.4,8.91Z"/>
  <path d="M261,210.73c1.43.82,1.73,2.43,1.12,3.77-.46,1.02-2.21,2.12-3.54,1.35l-15.79-9.08c-1.39-.8-1.7-2.53-1.01-3.8.74-1.37,2.51-1.89,3.96-1.05l15.26,8.81Z"/>
</svg>