<?xml version="1.0" encoding="UTF-8"?>
<svg id="Calque_1" data-name="Calque 1" xmlns="http://www.w3.org/2000/svg" viewBox="0 0 256.49 290.62">
  <path d="M99.68,62.24c25.31,2.01,45.54,22.26,47.62,47.71,1.15,14.04-3.71,29.1-13.36,39.23l-1.78,1.86-1.74,1.68c-21.64,19.76-54.93,17.63-74.13-4.09-17.67-19.98-17.35-49.99.66-69.63l1.66-1.75,2.13-2c8.35-7.82,19.25-12.09,30.56-13.02h8.38ZM93.15,145.3c13.37.99,25.67-6.78,30.92-18.95,4.79-11.12,2.55-24.16-5.61-33.09-5.43-5.94-12.54-9.55-20.6-10.16-4.48-.34-8.9.22-13.15,1.77-13.35,4.84-21.86,18.3-20.39,32.45,1.56,15.01,13.62,26.86,28.83,27.98Z"/>
  <path d="M12.06,261.8v-26.88c2.12-25.1,21.83-45.26,47.26-47.64l4.02-.33,64.76.13c12.65.03,24.65,5.49,33.89,13.72l3.03,3.07c7.85,8.36,12.4,18.93,13.54,30.43l.03,27.4c-.5,2.52-1.56,4.42-3.4,6.07-4.51,4.04-11.33,3.43-15.15-1.39-1.19-1.5-2.2-3.52-2.22-5.63l-.24-24.54c-.34-6.73-3.31-12.8-7.54-17.82l-2.68-2.65c-5-4.42-11.09-6.99-17.84-7.69H61.14c-9.14.96-17.22,5.51-22.4,12.99-3.21,4.68-5.35,9.87-5.66,15.66l-.25,24.34c-.06,5.35-5.01,9.19-10.05,9.39s-9.73-3.59-10.71-8.63Z"/>
  <path d="M169.12,165.08c-6.78.35-11.98-5.32-11.28-11.85.74-3.99,3.16-7.34,7.14-8.51,5.09-1.51,9.85-3.67,13.82-7.3,5.94-5.43,9.64-12.78,10.22-20.8v-4.82c-.51-6.89-3.32-13.2-7.86-18.37s-10.22-7.97-16.58-9.88c-5.22-1.57-7.77-7.44-6.39-12.45,1.37-4.97,6.62-8.71,11.98-7.46,22.29,5.19,38.43,24.75,39.8,47.55v6.1c-.8,11.75-5.19,22.97-13.16,31.64l-1.86,2.02-2.99,2.76c-6.36,5.87-14.22,9.49-22.84,11.38Z"/>
  <path d="M220.26,260.09v-13.06s.05-8.01.05-8.01l-.17-2.48c-.88-12.73-10.09-23.71-22.5-27.06-5.74-1.55-9.55-6.46-8.41-12.41,1.08-5.64,6.77-9.67,12.67-8.19,22.07,5.54,38.57,25.16,39.23,48.03l-.04,24.05c0,5.72-5.5,9.65-10.71,9.46-5.57-.21-9.81-4.55-10.11-10.33Z"/>
</svg>