<?xml version="1.0" encoding="UTF-8"?>
<svg id="Calque_6" data-name="Calque 6" xmlns="http://www.w3.org/2000/svg" viewBox="0 0 256.49 290.62">
  <path d="M13.02,269.24l.05-35.7c1.12-10.99,5.2-21.31,12.55-29.7l5.29-5.34c9.06-7.62,20.35-12.59,32.44-12.62l66.19-.14c16.24,1.01,31.12,8.76,40.49,22.05,5.52,7.83,8.99,17.02,9.38,26.75l.18,34.7H13.02Z"/>
  <path d="M100.64,61.04c11.45.95,22.16,5.64,30.66,13.33l3.64,3.63c17.68,19.52,18.04,49.26.61,69.19-20.86,23.86-57.42,23.77-78.29.24-17.78-20.06-17.34-50.29.86-69.9,8.97-9.66,20.92-15.43,34.12-16.5h8.39Z"/>
  <path d="M163.19,61.03c25.26,2.18,45.37,22.2,47.48,47.58,1.22,14.64-3.63,28.89-13.7,39.76l-2.91,2.9c-12.25,11.37-29.22,16.08-45.69,12.76l1.4-1.66c25.17-26.94,25.82-69.44,1.5-97.14l-2.89-3.29c2.1-.37,4.14-.79,6.26-.92h8.54Z"/>
  <path d="M242.22,236.6v32.4c-.14.1-.68.24-.98.24h-40.76s-.13-8.06-.13-8.06l-.27-29.05c-.73-15.49-7.88-31.06-18.09-42.57l-3.15-3.55,6.14-.17,6.82-.05,2.46.17c11.54.79,22.4,5.68,30.88,13.44l3.15,3.16c7.73,8.36,12.67,18.91,13.57,30.3l.36,3.74Z"/>
</svg>