<?xml version="1.0" encoding="UTF-8"?>
<svg id="Calque_1" data-name="Calque 1" xmlns="http://www.w3.org/2000/svg" viewBox="0 0 352.02 352.01">
  <path d="M158.13,35.08l2.63-.1.51-.94,4.36-.06.42-.97,2.7-.04.48-.91,4.61-.05.25-.99h2.89s.18-.98.18-.98l3.76-.09.49-.89,3.35-.07.51-.93,3.39-.11.5-.93,3.6-.05.38-.93,3.72-.03.24-1,3.84-.02.38-.97,3.36-.09.53-.89,3.55-.05.52-.92,2.62-.13c.08-.15.53-.91.76-.91l4.06-.07.44-.91,2.76-.03.23-1,4.7-.03.2-1.01h2.87s.18-.92.18-.92l3.72-.08.49-.93,3.6-.08.48-.93,3.39-.09.48-.88,3.66-.07.22-.99h3.64s.32-1.02.32-1.02l3.63-.04.48-.89,3.41-.12.5-.93,3.57-.04.49-.94,3.66-.09.25-.93h3.82s.24-1.01.24-1.01h3.61s.27-1,.27-1l3.69-.08.49-.88,3.4-.1.43-.94,2.68-.03.48-.97,4.61-.04.26-.95h2.85s.22-1.01.22-1.01h3.91s.29-1.01.29-1.01h4.55s.15.86.15.86c.04.2.64.15.84.15h.87c.21.02.12.75.31.83l.78.34c.27.12.06,1.5.27,1.57l.88.29v289.02s-88.02-.01-88.02-.01v-90.99s-79.97,0-79.97,0v90.99s-88.02,0-88.02,0V65.04c.5,0,.86.02.91-.12l.21-.7.89-.7c.07-.06,0-.53.09-.53h.54s1.07,0,1.07,0c.26,0,.33-.53.42-.94l2.89-.02.08-.41c.01-.07.14-.56.21-.56l3.24-.04c.73,0,.27-.99.79-.99h3.49s.38-.92.38-.92l2.7-.1.7-.03c.2,0,.35-.51.49-.91l3.28-.05c.27,0,.59-.41.81-.89l3.23-.18c.27-.01.52-.47.62-.9l3.77-.04.3-1.02,3.29.04.45-.44c.06-.29.24-.6.41-.6l3.34-.03c.19,0,.54-.61.67-.84l3.35-.17.65-.89,3.31-.07c.21,0,.4-.5.45-.94l3.15-.08.56-.04c.15-.01.16-.42.18-.86l3.35-.03c.2,0,.61-.04.64-.19l.13-.8h3.26c.13-.01.51-.16.52-.26l.08-.75,2.95-.09.56-.87,4.04-.07c.27,0,.62-.7.7-.97h2.28c.27,0,.59-.43.82-.95l3.38-.1c.22,0,.51-.47.67-.83l3.5-.16.28-.96h3.89s.13-.81.13-.81c.02-.15.48-.19.65-.2l2.38-.03c.32,0,.75-.42.97-.86l3.62-.15c.14-.24.52-.92.77-.92l2.6-.04c.27,0,.74.05.79-.1l.28-.9,3.08-.03c.19,0,.59-.07.63-.21l.22-.72,3.77-.03.24-.99,3.8-.06.03-.8c0-.15.36-.15.61-.15l3.13-.1.48-.84ZM111.01,119.03l-.02-30h-29.99s0,30,0,30h30ZM163.98,119.03v-29.99s-29.99.01-29.99.01v29.99s29.99,0,29.99,0ZM217.97,90.17c-.76-.24-.86-.55-.89-1.13h-29.1s0,30.01,0,30.01l30.01-.04v-28.83ZM271.02,119.02v-29.98s-30,0-30,0v30s30-.02,30-.02ZM111.01,172.03l-.02-30h-29.96s-.03,30-.03,30h30.01ZM163.99,172.03l-.03-30.01h-29.97s.01,29.99.01,29.99l29.99.02ZM217.97,143.2c-.78-.14-1.01-.51-1.2-1.18h-28.8s0,30,0,30h30.01s0-28.82,0-28.82ZM271.02,172.02v-30s-30.01,0-30.01,0v30.02s30.01-.01,30.01-.01Z"/>
  <path d="M1.81,350.16l-.65-.26c-.18-.07-.14-.61-.16-.84l-.05-.84c-.01-.21-.62-.21-.94-.22v-8.02s1.03-.24,1.03-.24l-.02-4.63.93-.34.05-2.68.97-.29.1-2.56c1.71-.33.15-1.99,1.79-2.53l.2-1.61.79-.14c.2-.04.16-.63.16-.84v-.88c0-.21.81-.09.86-.29l.21-.84c.05-.18.5-.21.81-.27l.14-1.66.71-.23c.19-.06.23-.8.35-.82l.81-.16.25-.82.99-1.14c.15,0,.64.02.69-.12l.26-.75.71-.27.34-.76.59-.25.37-.71.66-.23.32-.82.8-.16c.19-.04.27-.57.36-.71l.99-.95.59-.29c.17-.09.24-.51.32-.84l1.72-.26.18-.76c.08-.32,1.6,0,1.68-.21l.33-.83.82-.15c.19-.03.19-.64.22-.9l2.02.02.11-.84c.07-.51,2.45.36,2.87-1.14l2.64-.09.5-.94,2.63-.08c.26-.61.55-.98,1.33-.98h282.33s.79.98.79.98l2.59.09c.59,1.9,2.82.03,3.37,1.83l2.59.17.13.8c.03.2.59.15.83.15h1.06c.21,0,.08.77.28.84l.67.24c.18.06.23.5.3.84l1.82.11.09.69c.06.44,1.42.09,1.63.43l.51.8.68.18c.14.04.22.49.28.62l.94.67c.08.06,0,.59.11.58l.75-.07.14.48.73.73,1.01.98,1.01,1.02.97,1.02c.29.3.67.61,1.13.87l.15.8.78.3.26.64c.07.18.46.24.8.33l.27,1.67.69.24.27.79.78.34c.33.14-.02,1.6.19,1.67l.85.27.14,1.84c.46,0,.89,0,.9.15l.02.8.03,1.01c0,.2.67.2.9.23l.22,2.59.74.47c.42.26-.57,2.43,1.09,2.93l.07,4.54.97.4v7.83c-.36.08-.86.14-.89.33l-.12.89c-.02.17.05.63-.09.68l-.81.32c-.14.05-.11.58-.22.66-.69.52-1.83-.29-2.03,1.22H5.02c-.61,0-.88-.3-1.13-.82l-1.29-.22c-.26-.05-.52-.07-.57-.2s-.09-.56-.22-.61Z"/>
</svg>