<?xml version="1.0" encoding="UTF-8"?>
<svg id="Calque_1" data-name="Calque 1" xmlns="http://www.w3.org/2000/svg" viewBox="0 0 267.97 352.02">
  <path d="M21.05,347.99h-.96c-.19,0-.16-.54-.15-.95l-1.81-.08-.27-.82-.68-.24c-.19-.06-.23-.55-.29-.87l-1.79-.05-.13-.78c-.03-.2-.57-.2-.88-.23l-.28-.71c-.07-.17-.68-.2-.74-.35l-.24-.63-.74-.36-.25-.57c-.08-.18-.49-.25-.78-.36-.08-.11-.1-.7-.28-.74l-.83-.21-.11-.65c-.03-.19-.45-.39-.65-.54-.15-.11-.17-.68-.36-.73l-.78-.21c-.21-.5-.45-.77-1.03-1.03l-.16-1.64-.74-.15c-.19-.04-.16-.68-.2-.88l-.8-.26c-.19-.06-.15-.66-.15-.88v-.84c-.02-.21-.64-.21-.92-.24l-.25-1.59-.7-.48c-.28-.19.05-1.63-.15-1.7l-.88-.32-.17-2.61-.94-.34-.03-4.74c-.57-.17-.93-.47-.93-1.05V32s.96-.41.96-.41v-4.51s.99-.28.99-.28l.11-2.6.78-.23c.18-.05.19-.54.16-.81-.1-.76.16-1.19.83-1.45l.22-1.62.79-.15c.19-.04.17-.59.17-.82v-.88c0-.22.8-.1.85-.31l.22-.83c.05-.18.46-.21.83-.27l.09-1.74.71-.19c.19-.05.22-.75.37-.79l.76-.23.31-.71.98-1.16c.14-.02.63,0,.68-.14l.32-.82c.05-.13.59-.08.65-.21l.35-.74.61-.23.34-.76.66-.21.35-.81.73-.22c.17-.05.27-.61.37-.74l1.58-.25.32-.79c.07-.17.63-.18.71-.35l.32-.61c.09-.16.49-.18.77-.2l.84-.05c.21-.01.27-.52.33-.84l1.88-.12c.02-.33.05-.92.26-.93h1.05s.81,0,.81,0c.16,0,.09-.52.08-.92l2.66-.22.54-.84,4.3-.09.56-.96h128.81s0,84.77,0,84.77l.95.23.22,2.81c1.47.31.12,1.57,1.8,2.45l.09,1.2c.02.29.6.46.91.62.01.16-.02.71.13.76l.86.28.06,1.73.79.16c.2.04.2.76.34.81l.78.23.46.61.96,1.11,1.52.29.26.76.76.33.22.69c.06.2.6.18.86.18l.83.02c.21,0,.24.53.27.89l1.92.07.32.97,3.41.07.54.99h87.72s0,216.1,0,216.1c0,.58-.35.89-.92,1.07l-.06,4.72-.96.34-.05,1.7-.12.84c-.03.19-.59.26-.86.33l-.07,1.81c-1.45.36-.53,1.98-1.26,2.08l-.68.1-.03,1.83-.79.12c-.14.02-.21.41-.22.55l-.05.43-.69.16c-.15.03-.18.45-.18.68-.05,1.68-.67.71-1.17,2l-.74.29-.83,1.12c-.17.23-.31.78-.56.82l-.58.11c-.1.02-.16.31-.19.42l-.1.37-.67.21c-.14.04-.2.39-.27.66l-.89.43c0,.19,0,.55-.08.58l-.61.25s-.26.17-.27.22l-.12.51c-.03.14-.25.12-.8.1l-.37,1.03h-1.55s-.07.2-.23.66l-.87.54-.24.59c-.21.51-1.81-.15-1.88.51l-.07.61c-.01.13-.39.14-.53.14h-.53s-.53,0-.53,0c-.09,0-.34.25-.36.34l-.11.52c-.1.47-1.81-.57-2.44,1.04l-1.85.08c-.11,0-.56-.06-.57.04l-.13.91-4.99.06-.06.79c-.01.16-.41.2-.79.2H32.64c-.52,0-.67-.53-.63-1.04l-4.48.03c-.33,0-.58-.68-.66-1.01l-1.92-.04c-.34,0-.82-.56-1.03-.91l-1.84-.07-.16-.75c-.04-.2-.61-.26-.87-.26ZM209.79,157.98c.74,0,1.09-.37,1.34-.92l1.75-.08.23-.86.7-.34.39-.74.61-.25.37-.72.65-.25.33-.77c.06-.13.48-.15.74-.19l.13-2.5.98-.66-.12-4.58c-.35-.04-.91-.06-.91-.25l-.04-.77-.05-.99c0-.2-.65-.21-.87-.25l-.09-1.79c-.3-.04-.81-.08-.87-.26l-.29-.79c-.2-.04-.85,0-.89-.19l-.17-.75-1.69-.12-.46-1H52.12s-.25,1.05-.25,1.05l-1.72.06c-.05.32-.07.8-.25.84l-.69.15-.97,1.25c-.08.16-.13.68-.3.72l-.92.17-.04,2.74-1.02.29.03,5.53,1.02.2-.02,1.94c.36.04.83.06.9.24l.28.74,1.03.96.94,1,.73.28c.18.07.22.62.27.83l1.71.11c.24.72.54.89,1.29.89h155.66ZM210.8,213c.15-.6.31-1,.49-1.01l1.48-.06c.38-.59.6-.78,1.04-1.06.08-.15.21-.63.39-.69l.73-.26c.05-.34.05-.79.23-.86l.66-.25.35-.74.76-.33.11-2.4.97-.53-.09-4.71c-.37-.04-.92-.05-.93-.25l-.04-.78-.05-.98c0-.2-.68-.19-.85-.24l-.15-1.62-.92-.21c-.15-.03-.02-.6.04-.91l-1.16-.18c0-.26-.01-.86-.22-.88l-.87-.06c-.19-.01-.76.05-.81-.14l-.2-.84H52.12s-.27.99-.27.99l-1.73.06c-.03.25-.01.87-.21.89l-.82.12c-.11.92-1.35,1.94-1.21,1.91l-.89.21-.03,2.73-1.02.27.05,5.57c.32.03.96,0,.97.22l.02,1.05c0,.25-.05.82.15.88l.68.2c.22.48.49.92.83,1.23l1.04.96.46.6.76.28c.18.07.13.79.33.79h.84c.21,0,.81,0,.85.21l.17.82h157.71ZM109.02,268.01c.08-.5.22-1.01.37-1.01l2.33-.02.25-.96.94-.14.21-.71.78-.3.24-.76.76-.39c.25-.13-.08-1.43.24-1.56l.78-.34.13-2.52c.82-.29,1.03-.81,1.01-1.66s-.19-1.42-1.03-1.7l-.15-2.78c-.34-.06-.83-.09-.87-.28l-.15-.71c-.47-.25-.81-.58-1.08-1.03l-.7-.4-.25-.61c-.06-.15-.69-.16-.75-.34l-.27-.75c-.25-.03-.87,0-.9-.2l-.16-.87h-58.66s-.23,1.04-.23,1.04l-1.74.03c-.04.25-.05.81-.23.87l-.74.25-.87,1.3c-.19.28-.35.53-.53.56l-.76.12-.03,2.76-1.02.24.04,5.8c.35,0,.96,0,.96.21l.03.85c0,.23-.05.81.15.86l.68.2c.23.51.48.93.84,1.26l1.05.96c.12.14.28.53.45.58l.78.27c.07.18.07.84.28.85l.84.02c.23,0,.85-.05.88.16l.15.86h55.94Z"/>
  <path d="M225.8,44.17l.27.63.77.33.22.66.77.35.22.61.73.34,1.03,1.07.99,1.01c.26.27.69.6,1.09.86l.16.8.82.29.22.71c.14.46.89-.34,2.03.93l1,1.12.59.21c.18.06.33.48.44.7.41.34.75.66,1.05,1.04.11.06.52.16.58.29l.35.76.64.23.36.73.58.26.38.72.73.28.37.73.62.25.33.71c.4.3.76.64,1.05,1.04.12.06.53.16.59.29l.35.75.65.23.36.78.72.26.35.66.66.26.34.74.62.26.44.67.94.97.61.28c.17.08.16.43.17,1l1.86.1.19.88c.04.18.5.3.63.43l.96.98.38.5c.11.14.65.16.73.31l.36.71.68.38c.23.41.6.73,1.01.95l.27.62c.08.18.5.24.82.32l.28,1.66c.62.13.93.52,1.07.96l.64.24.22.85.75.34c.34.15-.02,1.63.18,1.68l.98.25-.07,1.88h-77.66s-.56-.83-.56-.83l-2.79-.23c.26-1.19.07-1.81-.95-2.17V5.11c.81-.22,1.99-.15,2.67.05.09.17.23.68.38.71l.88.14.26.93,1.67.15c.03.21.02.73.17.76l.89.21.25.74.77.34.22.64.73.35.23.61.77.33.2.69.79.29,1.01,1.09,1.04.92.22.74c.05.18.66.18.8.31.1.1.09.6.22.66l.73.34.22.67c.12.35,1.47.1,1.66.4l.42.66,1,.98.99.98.7.29c.17.07.19.61.32.74.1.1.57.13.63.26l.35.73.63.25.37.7.62.25.38.73.71.35.25.8.66.13.4.72.68.37.35.72.63.25.33.76.64.22.36.76.76.25.43.61,1,.99.96.95.52.36c.15.1.2.51.29.8l.73.31.29.84,1.52.25,1.03,1.18c.29.34.63.64,1.02.94l.35.52c.1.15.49.25.73.34.26.43.62.79,1.05,1.04.05.11.12.54.25.6l.75.34.24.65.74.36.27.57.71.39.34.74.8.22c.07.14.04.7.22.78l.75.35.26.6.66.36Z"/>
</svg>