<?xml version="1.0" encoding="UTF-8"?>
<svg id="Calque_2" data-name="Calque 2" xmlns="http://www.w3.org/2000/svg" viewBox="0 0 273.49 352.92">
  <path d="M271.47,327.38c0,.29-.58.62-.93.7l-.09,1.9-.83.14c-.2.03-.15.65-.15.9l-.02.82c0,.21-.65.19-.95.21l-.07,1.79-.72.17c-.19.05-.2.57-.26.9l-.72.29c-.45.18-.1,1.52-.38,1.63l-.7.27-.32.7-.74.34-.2.84c-.04.19-.64.11-.77.25-.1.11-.09.65-.23.7l-.75.29-.25.66-.69.38-.26.61-.79.34-.18.66-.88.21-.26.73-.73.34-.24.66c-.12.32-2.04-.1-3.05,2.09l-1.77.19-.2.81c-.08.32-1.65,0-1.7.2l-.27.88h-1.88s-.21,1.01-.21,1.01l-2.72.04-.3.98-4.57.07-.6.91H37.69s-.6-.93-.6-.93l-4.59-.04-.23-1-2.74-.02-.14-.81c-.04-.2-.61-.21-.84-.21h-.84c-.2,0-.23-.51-.27-.9l-1.95-.07-.15-.76c-.09-.47-1.57-.07-1.69-.36l-.31-.79c-.6-.12-.99-.36-1.34-.9l-1.39-.3-.14-.74c-.04-.19-.57-.16-.9-.19l-.27-.74c-.06-.17-.57-.24-.71-.36-.11-.09-.12-.54-.25-.6l-.75-.35-.23-.63-.75-.34-1.04-1.09-1.02-.92-.14-.6c-.04-.19-.71-.25-.79-.41l-.33-.72-.79-.38-.1-1.68-.8-.11c-.2-.03-.17-.57-.2-.92l-.79-.25c-.5-.16.32-1.7-1.06-2.01l-.29-1.65-.7-.26c-.46-.17.5-1.93-1.02-2.19l-.18-2.3c-.02-.23-.49-.44-.91-.5v-4.78s-1.02-.28-1.02-.28V31.94s.81-.01.81-.01c.15,0,.21-.44.21-.64v-4.27s.76-.15.76-.15c.2-.04.15-.63.17-.87l.17-1.79c1.45-.22.64-1.97.89-2.08l.81-.38.29-1.63c1.31-.34.66-1.77.94-1.89l.89-.38c.14-.06-.06-.79.09-.82l.92-.2.09-1.62.67-.36c.19-.1.3-.64.45-.79.11-.11.7-.11.73-.26l.15-.69,1.01-.89,1.1-1.19.5-.1c.44-.09.09-.54.7-.9.33-.19.6-.52.82-.9l.58-.25c.13-.06.19-.43.25-.62.13-.48.94-.17.97-.31l.14-.79,1.56-.44c.21-.48.63-.72,1.13-.78l.33-.69c.1-.21.64-.25.92-.29l.74-.09c.15-.02.17-.47.21-.86l1.97-.12.17-.77c.03-.14.48-.13.66-.13l1.05-.05c.21,0,.21-.66.24-.93l2.75-.06.25-.97,4.61-.11c.22-.48.47-.88,1.02-.88h137.09c.11.35.44.92.66.93l4.42.06.19.84c.04.19.58.16.84.16h1.05c.21,0,.18.7.21.95l2.75.09.17.74c.11.46,1.65-.09,1.8.37l.24.73c.06.19.61.1.95.09.35-.02.83.54,1.08.79l1.23,1.1,1.51.23c.06.21.12.74.28.81l.72.34.23.7.67.19c.3.45.61.73,1.12,1.01.05.11.18.62.35.69l.69.3.14.75c.03.15.48.22.62.28.38.42.75.7,1.34.91.01,0-.06.71.13.76l.84.25.05.56.6.35c.19.11.42.51.58.81l.62.24c.18.07.24.51.31.82l1.7.27c.07.3.14.75.31.83l.73.34.12.56.66.26.34.7.77.38.28.72.72.27c.23.37.51.68.93.9l.51.87c.2,0,.65,0,.68.14l.12.72c.76.4,1.73,1.27,2.09,2.1,1.35,0,.42.93,1.74,1.24l.26.57c.08.17.65.22.7.36l.24.65.76.35c.14.06.16.53.21.67.07.19.59.23.79.3l.91.92c.49.49.24.83.36.87l.76.24.28.73.76.33.22.65.81.22c.2.05.75,0,.83.17l.34.78.65.21.34.74.61.25.37.69.75.37.25.76.78.09c.19.02.15.64.29.78.1.1.57.13.63.25l.35.71.67.24.33.81.84.26c.01.22,0,.63.12.7l.69.4.3.59.79.29.27.72.77.33.23.63c.07.18.57.24.72.36.11.09.1.56.23.62l.76.33.22.7.79.3,1.01,1.09,1.03.91.15.61c.05.19.41.27.82.36l.31.83.64.2c.18.06.23.54.29.83l1.74.23c.06.3.09.68.21.76l.63.42,1,.99.36.49c.11.15.69.16.76.32l.33.69.71.49c.25.34.54.66.82.91l1.1.98.31.55c.07.12.24.16.69.28l.38,1c.29,0,.68,0,.74.12l.27.64.69.36.34.72.63.24.33.74.65.23.36.77.76.25.43.6.99.98,1.06,1.08c.12.08.52.2.54.33l.13.73.92.38c.02.29.04.76.19.77l.81.06c.48.04.87.44,1.24.83l.88.93,1.02,1.08.7.3.37.68.6.29c.13.06.15.35.22.7l.96.34.02.85c0,.16,1.07-.05,1,.7-.04.43.34,1.29.9,1.35l.25.78.72.35.28.64c.06.13.35.15.79.24l.07,1.4c.04.74.93.41.94.66l.02.78.02.84.88.27.17.87c.04.19.64.2.86.23l.25,2.65c1.73.4-.16,2.75,1.83,3.3l.02,4.6,1.01.39v224.78c-.9.14-1.01.49-1.02,1.08l-.03,3.84c-.61.28-1,.7-1,1.28l.02,1.34ZM245.35,328.91l.26-.91.75-.27.25-.61.7-.37.33-.69.7-.28.24-.68c.06-.17.69-.28.79-.46.18-.32.48-.7.82-1.02l.37-1.5c.05-.19.6-.24.77-.32.39-.18-.14-1.6.29-1.77l.87-.34V102.96s-66.93,0-66.93,0l-.28-.95-3.72-.05c-.12-.6-.5-1.05-.95-1.02-.41.02-.83.07-.93-.1l-.48-.79-1.54-.18-.36-.79-.79-.22-.18-.74c-.09-.37-1.56.04-1.65-.29l-.23-.81-.88-.2-.32-.74c-.07-.15-.72-.19-.76-.38l-.15-.62c-.4-.15-.87-.5-.89-.81-.02-.39-.07-.92-.27-1.02l-.67-.34c-.06-.34-.08-.82-.28-.86l-.76-.17-.1-1.77c-.29-.04-.85-.05-.85-.25l-.04-.77-.05-1.01c0-.21-.7-.18-.94-.22l-.04-2.76-1-.33V21s-128.55,0-128.55,0c-.46,1.57-2.1.8-2.24,1.15l-.31.81-1.68.14-.31.86c-.05.13-.62.11-.68.24l-.36.68c-.08.16-.66.09-.73.25l-.36.77c-.06.13-.57.11-.62.24l-.24.65c-.05.14-.42.18-.65.24-.48.11-.08,1-.42,1.03l-.8.08-.11,1.9c-.4.03-.83.04-.84.2l-.04.83c-.01.22.03.76-.15.84l-.9.37v287.59c.43.06,1,.09,1,.29l.02.83c0,.22,0,.8.2.85l.74.17.05,1.81.93.19.15.84.82.33.22.66.72.35.31.71.78.29.26.58.78.35c.13.06.13.53.16.79l1.81.09.2.86c.08.34,1.81-.49,2.29,1.12h203.31c.12-1.6,2.01-.72,2.12-1.12l.23-.83,1.78-.09ZM216.15,58.34l-.68-.57c-.1-.09-.11-.55-.25-.59l-.82-.23-.14-.81-.84-.34-.19-.66c-.04-.14-.66-.21-.75-.37l-.32-.52c-.4-.29-.69-.58-.99-.99l-.64-.4c-.12-.07-.16-.45-.21-.73l-1.71-.27-.3-.83-.64-.24-.34-.74c-.06-.13-.58-.13-.68-.23-.13-.13-.13-.67-.3-.74l-.69-.3-.97-1.02c-.12-.14-.29-.55-.47-.62l-.72-.27c-.04-.34-.04-.79-.22-.87l-.63-.29-.96-.95-.36-.72-.81-.18-.32-.79-.66-.24c-.14-.05-.2-.63-.37-.71l-.58-.27-.35-.72-.7-.3c-.13-.3-.24-.71-.42-.77l-.59-.19-1.03-1.03-.3-.78-.7-.21-.32-.77-.67-.22-.33-.76c-.06-.13-.51-.1-.66-.12l-.9-.09c-.2-.02-.12-.78-.3-.85l-.78-.32-.22-.66-.73-.34-.24-.61-.78-.34c-.14-.06-.1-.41-.11-.86l-1.99.28v47.5c.65.37.84.76,1.2,1.17l.96,1.11h51.78c.04-.4.06-.87-.14-.92-.15-.04-.62-.1-.68-.21l-.36-.78-.62-.27c-.25-.42-.62-.8-1-1.07l-.44-.7-.69-.1-.31-.82-.69-.2-.2-.78c-.03-.13-.42-.25-.54-.33l-1.31-.91c0-.11.05-.8-.15-.84l-.86-.18-.36-.78-.55-.3c-.28-.34-.62-.66-1.01-.96l-.37-.71c-.07-.13-.55-.08-.69-.13l-.79-.26-.25-.65-.79-.22-.34-.73-.76-.35-.23-.65-.73-.34-.23-.64-.73-.34-.34-.69-.76-.3-.26-.6-.69-.39-.27-.74c-.06-.15-.69-.18-.76-.36l-.23-.6-.77-.35c-.13-.06-.14-.54-.24-.64-.14-.13-.63-.19-.7-.36l-.29-.71-.86-.23-.21-.64c-.05-.15-.66-.19-.75-.36l-.29-.58-1.07-.9Z"/>
  <path d="M216.32,157.98H58.58s-.26-1.01-.26-1.01l-1.85-.02-.18-.74c-.05-.19-.48-.21-.86-.23-.46-.02-.9-.49-.95-.91l-.09-.81c-.02-.2-.62-.21-.9-.22l-.1-1.01-.73-.15c-.2-.04-.25-.55-.23-.82.05-.62-.21-1-.91-1.2l-.05-5.61.91-.53.13-2.54.8-.15c.19-.04.17-.58.2-.91l.76-.24.34-.74.6-.27c.18-.08.23-.48.31-.84l1.74-.15.51-.89,3.35-.04.58-.98h151.55s.6.95.6.95l3.43.1.28.76c.06.17.5.16.76.17l.9.04c.22,0,.22.61.21.9l.95.13.18.74c.05.2.56.23.89.28l.06,1.75.79.13c.2.03.19.59.2.83l.04.99c0,.19.55.24.88.31l.05,4.73-.88.51-.16,2.55-.79.15c-.19.04-.16.67-.19.9l-.77.24c-.18.06-.33.64-.37.68l-1.03.95c-.38.35-.57.54-.99,1.1l-1.68.1-.28.98Z"/>
  <path d="M216.16,213H58.78s-.45-1-.45-1l-1.87-.03-.14-.8c-.04-.2-.52-.21-.89-.21-.44,0-.94-.5-.94-.93,0-.29.04-.75-.1-.79l-.88-.29-.13-.93-.72-.17c-.19-.05-.24-.55-.25-.77l-.03-.75c0-.2-.48-.34-.87-.46l-.03-5.65.91-.52.12-2.56.81-.12c.2-.03.16-.67.2-.89l.75-.29c.17-.07.27-.55.36-.71l.61-.25c.18-.08.22-.51.28-.87l1.89-.04.34-1,3.35-.04.6-.92h151.56s.58.92.58.92l3.4.02.29,1.02,1.82.04.09.79c.02.19.51.2.86.24l.27.73c.07.17.54.22.87.27l.07,1.78c.22.03.92,0,.93.21l.04,1,.03.78c0,.2.55.21.91.25l.04,4.73-.88.51-.16,2.55-.79.15c-.2.04-.16.69-.2.9l-.75.27c-.18.06-.3.59-.35.7-.44.28-.73.57-.99.97l-.59.29c-.17.09-.22.44-.3.86h-1.83s-.46,1.02-.46,1.02Z"/>
  <path d="M115.25,267.95h-56.5c-.57-1.46-2.17-.74-2.23-1.03l-.21-.9-1.66-.1-.26-1.76-.72-.2c-.18-.05-.27-.58-.36-.76s-.79-.11-.8-.3l-.08-.9-.06-.7c-.02-.2-.46-.33-.86-.46l-.03-5.65.87-.5.16-2.57c.22-.02.71,0,.77-.14l.36-.81c.06-.13.5-.14.63-.2.17-.08.2-.52.27-.85l.67-.3c.16-.07.26-.46.36-.78l1.8-.04.23-1.02,3.63.02.25-1.03h50.78s.33,1,.33,1l3.71.03.16.8c.04.19.51.19.88.25l.3.7c.09.21.67.24.92.28l.75.11c.15.02.15.55.15.7v.87c0,.21.78.11.85.31l.27.76c.06.17.48.26.76.36l.21,2.54c.21.12.77.27.79.48l.12,1.2c.1.95.08,1.66-.96,1.92l-.12,2.63c-1.37.53-.7,1.87-.99,1.98l-.79.29-.23.66-.75.32-.24.64-.75.35c-.18.08-.11.78-.3.8l-.93.07c-.53.04-.86-.01-1.16.95Z"/>
</svg>