<?xml version="1.0" encoding="UTF-8"?>
<svg id="Calque_1" data-name="Calque 1" xmlns="http://www.w3.org/2000/svg" viewBox="0 0 352.11 272.97">
  <path d="M272.3,272.83l-249.12.14c-10.95,0-19.93-6.77-22.5-16.84l60.77-127.45c5.36-11.24,14.73-18.42,27.72-18.41l236.4.09c9.29,0,17.23,6.46,21.45,12.47,5.57,7.93,6.82,18,2.46,26.73l-53.9,108c-4.08,8.18-12.86,15.27-23.29,15.28Z"/>
  <path d="M296.07,60.17l.19,30.15H78.15c-12.81-.34-23.29,5.95-28.68,17.23L.12,210.7l-.12-189.57C.32,8.73,9.86-.02,22.04,0h82.94c7.31.11,13.92,3.07,18.11,8.92l23,32.06,129.7.19c10.33.01,20.22,8.85,20.28,19Z"/>
</svg>