<?xml version="1.0" encoding="UTF-8"?>
<svg id="Calque_1" data-name="Calque 1" xmlns="http://www.w3.org/2000/svg" viewBox="0 0 351.96 275.79">
  <path d="M324.13,104.95c8.71-.46,16.71,2.05,21.98,8.38s7.65,15.41,4.24,24.03l-48.96,123.7c-3.74,9.44-12.42,14.74-22.53,14.74l-246.79-.09C14.17,275.69,0,260.37,0,242.81V32.85C0,16.21,13.13.4,30.07.34l94.82-.34c9.04.48,15.76,4.94,22.1,10.88l44.63,41.75,101.39.28c16.73.05,30.68,14.73,30.87,30.75l.25,21.3ZM295.2,85.1c0-1.29-2.96-3.58-4.25-3.58h-97.88c-9.46-.07-17-3.93-23.68-10.17l-45.52-42.52-91.8.02c-1.26,0-3.05,2.69-3.13,4.1l.14,153.36,26.34-66c3.67-9.2,11.51-14.92,21.72-15.31h217.93s.13-19.91.13-19.91ZM276.02,246.88l44.57-112.9-239.55-.05-44.63,112.91,239.61.04Z"/>
</svg>